<svg width="24" height="24" viewBox="0 0 24 24" fill="none" xmlns="http://www.w3.org/2000/svg">
<path d="M5.2152 8.27669L8.4474 9L12 7L6.90156 7.11329C6.85165 7.1154 6.80326 7.1274 6.76103 7.14815L5.14775 7.8671C5.09756 7.88865 5.05688 7.92138 5.03095 7.96105C5.00502 8.00072 4.99504 8.04551 5.00231 8.08963C5.00957 8.13374 5.03375 8.17515 5.0717 8.2085C5.10965 8.24185 5.15964 8.2656 5.2152 8.27669Z" fill="#9F9F9F"/>
<path d="M21.3019 5.77376L17.7528 5.04604C17.4543 4.98449 17.1454 4.98465 16.847 5.04651C16.5485 5.10837 16.2676 5.23048 16.0233 5.40455L5.30265 12.8048L2.72812 12.6978C2.58065 12.6931 2.43534 12.7324 2.31269 12.8103C2.19005 12.8883 2.09627 13.0008 2.04459 13.1321C1.99292 13.2633 1.98597 13.4067 2.02471 13.5419C2.06346 13.6772 2.14595 13.7974 2.26054 13.8857L4.76746 15.7746C4.80873 15.8062 4.85786 15.8272 4.91014 15.8357C4.96241 15.8441 5.01609 15.8397 5.06604 15.8227C5.7815 15.5606 8.44617 14.2175 11.5953 12.5748L12.2263 18.7336C12.2316 18.787 12.2522 18.8379 12.2858 18.881C12.3194 18.924 12.3647 18.9575 12.4169 18.9779C12.4691 18.9983 12.5261 19.0047 12.5819 18.9966C12.6376 18.9884 12.69 18.966 12.7333 18.9316L14.1417 17.8186C14.2188 17.7572 14.2706 17.672 14.2882 17.5778L15.6233 10.4665C17.8767 9.2786 20.0287 8.12816 21.5442 7.31482C21.7014 7.23354 21.8286 7.10831 21.9084 6.95609C21.9882 6.80387 22.0169 6.63202 21.9904 6.46383C21.964 6.29564 21.8838 6.13923 21.7606 6.01579C21.6374 5.89236 21.4773 5.80787 21.3019 5.77376Z" fill="#9F9F9F"/>
</svg>
