<svg width="24" height="24" viewBox="0 0 24 24" fill="none" xmlns="http://www.w3.org/2000/svg">
<path d="M21 12C21 16.9706 16.9706 21 12 21C7.02944 21 3 16.9706 3 12C3 7.02944 7.02944 3 12 3C16.9706 3 21 7.02944 21 12Z" fill="#3A633B"/>
<path d="M7.37962 12.0081C7.19991 11.7984 6.88426 11.7741 6.6746 11.9539C6.46494 12.1336 6.44066 12.4492 6.62038 12.6589L7.37962 12.0081ZM10.1429 16L9.76323 16.3254C9.85822 16.4362 9.9969 16.5 10.1429 16.5C10.2888 16.5 10.4275 16.4362 10.5225 16.3254L10.1429 16ZM17.3796 8.3254C17.5593 8.11573 17.5351 7.80008 17.3254 7.62037C17.1157 7.44066 16.8001 7.46494 16.6204 7.6746L17.3796 8.3254ZM6.62038 12.6589L9.76323 16.3254L10.5225 15.6746L7.37962 12.0081L6.62038 12.6589ZM10.5225 16.3254L17.3796 8.3254L16.6204 7.6746L9.76323 15.6746L10.5225 16.3254Z" fill="white"/>
</svg>
