<svg width="24" height="24" viewBox="0 0 24 24" fill="none" xmlns="http://www.w3.org/2000/svg">
<path d="M6 11H8.4V13.3333H6V11ZM6 15.6667H8.4V18H6V15.6667ZM10.8 11H13.2V13.3333H10.8V11ZM10.8 15.6667H13.2V18H10.8V15.6667ZM15.6 11H18V13.3333H15.6V11ZM15.6 15.6667H18V18H15.6V15.6667Z" fill="white"/>
<path d="M4.22222 23H19.7778C21.0033 23 22 22.0133 22 20.8V5.4C22 4.1867 21.0033 3.2 19.7778 3.2H17.5556V1H15.3333V3.2H8.66667V1H6.44444V3.2H4.22222C2.99667 3.2 2 4.1867 2 5.4V20.8C2 22.0133 2.99667 23 4.22222 23ZM19.7778 7.6L19.7789 20.8H4.22222V7.6H19.7778Z" fill="white"/>
</svg>
