<svg width="24" height="24" viewBox="0 0 24 24" fill="none" xmlns="http://www.w3.org/2000/svg">
<path d="M13.1464 7.89645C12.9512 8.09171 12.9512 8.40829 13.1464 8.60355C13.3417 8.79882 13.6583 8.79882 13.8536 8.60355L13.1464 7.89645ZM15.75 6L16.1036 5.64645C16.0098 5.55268 15.8826 5.5 15.75 5.5C15.6174 5.5 15.4902 5.55268 15.3964 5.64645L15.75 6ZM17.6464 8.60355C17.8417 8.79882 18.1583 8.79882 18.3536 8.60355C18.5488 8.40829 18.5488 8.09171 18.3536 7.89645L17.6464 8.60355ZM15.25 18C15.25 18.2761 15.4739 18.5 15.75 18.5C16.0261 18.5 16.25 18.2761 16.25 18H15.25ZM10.8536 16.1036C11.0488 15.9083 11.0488 15.5917 10.8536 15.3964C10.6583 15.2012 10.3417 15.2012 10.1464 15.3964L10.8536 16.1036ZM8.25 18L7.89645 18.3536C8.09171 18.5488 8.40829 18.5488 8.60355 18.3536L8.25 18ZM6.35355 15.3964C6.15829 15.2012 5.84171 15.2012 5.64645 15.3964C5.45118 15.5917 5.45118 15.9083 5.64645 16.1036L6.35355 15.3964ZM8.75 6C8.75 5.72386 8.52614 5.5 8.25 5.5C7.97386 5.5 7.75 5.72386 7.75 6L8.75 6ZM13.8536 8.60355L16.1036 6.35355L15.3964 5.64645L13.1464 7.89645L13.8536 8.60355ZM15.3964 6.35355L17.6464 8.60355L18.3536 7.89645L16.1036 5.64645L15.3964 6.35355ZM15.25 6L15.25 18H16.25L16.25 6L15.25 6ZM10.1464 15.3964L7.89645 17.6464L8.60355 18.3536L10.8536 16.1036L10.1464 15.3964ZM8.60355 17.6464L6.35355 15.3964L5.64645 16.1036L7.89645 18.3536L8.60355 17.6464ZM8.75 18L8.75 6L7.75 6L7.75 18H8.75Z" fill="white"/>
</svg>
