<svg width="16" height="16" viewBox="0 0 16 16" fill="none" xmlns="http://www.w3.org/2000/svg">
<path d="M13.3721 9.6375C13.3721 9.50821 13.3206 9.38421 13.2291 9.29279C13.1375 9.20136 13.0132 9.15 12.8837 9.15H10.9302C10.8007 9.15 10.6765 9.20136 10.5849 9.29279C10.4933 9.38421 10.4419 9.50821 10.4419 9.6375V14.025H9.46512V3.4625C9.46512 2.9893 9.46381 2.6825 9.43386 2.4576C9.40521 2.24635 9.35898 2.18005 9.32186 2.143C9.28474 2.10595 9.21833 2.0598 9.0067 2.0312C8.78074 2.0013 8.47405 2 8 2C7.52595 2 7.21861 2.0013 6.9933 2.0312C6.78167 2.0598 6.71526 2.10595 6.67814 2.143C6.64102 2.18005 6.59479 2.24635 6.56614 2.4576C6.53619 2.68315 6.53488 2.9893 6.53488 3.4625V14.025H5.55814V6.3875C5.55814 6.25821 5.50669 6.13421 5.4151 6.04279C5.32351 5.95136 5.19929 5.9 5.06977 5.9H3.11628C2.98675 5.9 2.86254 5.95136 2.77095 6.04279C2.67936 6.13421 2.62791 6.25821 2.62791 6.3875V14.025H1.48837C1.35885 14.025 1.23463 14.0764 1.14304 14.1678C1.05145 14.2592 1 14.3832 1 14.5125C1 14.6418 1.05145 14.7658 1.14304 14.8572C1.23463 14.9486 1.35885 15 1.48837 15H14.5116C14.6412 15 14.7654 14.9486 14.857 14.8572C14.9485 14.7658 15 14.6418 15 14.5125C15 14.3832 14.9485 14.2592 14.857 14.1678C14.7654 14.0764 14.6412 14.025 14.5116 14.025H13.3721V9.6375Z" fill="white"/>
</svg>
