<svg width="11" height="11" viewBox="0 0 11 11" fill="none" xmlns="http://www.w3.org/2000/svg">
<path fill-rule="evenodd" clip-rule="evenodd" d="M1.59092 1.10139C1.45574 0.966205 1.23657 0.966205 1.10139 1.10139C0.966205 1.23657 0.966205 1.45574 1.10139 1.59092L5.01047 5.5L1.10139 9.40908C0.966205 9.54426 0.966205 9.76343 1.10139 9.89861C1.23657 10.0338 1.45574 10.0338 1.59092 9.89861L5.5 5.98954L9.40908 9.89861C9.54426 10.0338 9.76343 10.0338 9.89861 9.89861C10.0338 9.76343 10.0338 9.54426 9.89861 9.40908L5.98954 5.5L9.89861 1.59092C10.0338 1.45574 10.0338 1.23657 9.89861 1.10139C9.76343 0.966205 9.54426 0.966205 9.40908 1.10139L5.5 5.01046L1.59092 1.10139Z" fill="#DBDBDB"/>
<path d="M1.10139 1.10139L1.45494 1.45494L1.45494 1.45494L1.10139 1.10139ZM1.59092 1.10139L1.94447 0.747833L1.59092 1.10139ZM1.10139 1.59092L0.747833 1.94447H0.747833L1.10139 1.59092ZM5.01047 5.5L5.36402 5.85355L5.71757 5.5L5.36402 5.14645L5.01047 5.5ZM1.10139 9.40908L1.45494 9.76263H1.45494L1.10139 9.40908ZM1.10139 9.89861L1.45494 9.54506L1.10139 9.89861ZM1.59092 9.89861L1.94447 10.2522H1.94447L1.59092 9.89861ZM5.5 5.98954L5.85355 5.63598L5.5 5.28243L5.14645 5.63598L5.5 5.98954ZM5.98954 5.5L5.63598 5.14645L5.28243 5.5L5.63598 5.85355L5.98954 5.5ZM9.89861 1.59092L10.2522 1.94447V1.94447L9.89861 1.59092ZM9.89861 1.10139L9.54506 1.45494L9.89861 1.10139ZM9.40908 1.10139L9.76263 1.45494V1.45494L9.40908 1.10139ZM5.5 5.01046L5.14645 5.36402L5.5 5.71757L5.85355 5.36402L5.5 5.01046ZM1.45494 1.45494C1.39486 1.51502 1.29745 1.51502 1.23737 1.45494L1.94447 0.747833C1.61403 0.417389 1.07828 0.417389 0.747833 0.747833L1.45494 1.45494ZM1.45494 1.23737C1.51502 1.29745 1.51502 1.39486 1.45494 1.45494L0.747833 0.747833C0.417389 1.07828 0.417389 1.61403 0.747833 1.94447L1.45494 1.23737ZM5.36402 5.14645L1.45494 1.23737L0.747833 1.94447L4.65691 5.85355L5.36402 5.14645ZM1.45494 9.76263L5.36402 5.85355L4.65691 5.14645L0.747833 9.05553L1.45494 9.76263ZM1.45494 9.54506C1.51502 9.60514 1.51502 9.70255 1.45494 9.76263L0.747833 9.05553C0.417389 9.38597 0.417389 9.92172 0.747833 10.2522L1.45494 9.54506ZM1.23737 9.54506C1.29745 9.48498 1.39486 9.48498 1.45494 9.54506L0.747833 10.2522C1.07828 10.5826 1.61403 10.5826 1.94447 10.2522L1.23737 9.54506ZM5.14645 5.63598L1.23737 9.54506L1.94447 10.2522L5.85355 6.34309L5.14645 5.63598ZM9.76263 9.54506L5.85355 5.63598L5.14645 6.34309L9.05553 10.2522L9.76263 9.54506ZM9.54506 9.54506C9.60514 9.48498 9.70255 9.48498 9.76263 9.54506L9.05553 10.2522C9.38597 10.5826 9.92172 10.5826 10.2522 10.2522L9.54506 9.54506ZM9.54506 9.76263C9.48498 9.70255 9.48498 9.60514 9.54506 9.54506L10.2522 10.2522C10.5826 9.92172 10.5826 9.38597 10.2522 9.05553L9.54506 9.76263ZM5.63598 5.85355L9.54506 9.76263L10.2522 9.05553L6.34309 5.14645L5.63598 5.85355ZM9.54506 1.23737L5.63598 5.14645L6.34309 5.85355L10.2522 1.94447L9.54506 1.23737ZM9.54506 1.45494C9.48498 1.39486 9.48498 1.29745 9.54506 1.23737L10.2522 1.94447C10.5826 1.61403 10.5826 1.07828 10.2522 0.747833L9.54506 1.45494ZM9.76263 1.45494C9.70255 1.51502 9.60514 1.51502 9.54506 1.45494L10.2522 0.747833C9.92172 0.417389 9.38597 0.417389 9.05553 0.747833L9.76263 1.45494ZM5.85355 5.36402L9.76263 1.45494L9.05553 0.747833L5.14645 4.65691L5.85355 5.36402ZM1.23737 1.45494L5.14645 5.36402L5.85355 4.65691L1.94447 0.747833L1.23737 1.45494Z" fill="#DBDBDB"/>
</svg>
