<svg width="24" height="24" viewBox="0 0 24 24" fill="none" xmlns="http://www.w3.org/2000/svg">
<rect width="24" height="24" fill="#F5F5F5"/>
<rect width="1840" height="4943" transform="translate(-595 -371)" fill="#CCCCCC"/>
<rect x="-370.5" y="-19.5" width="967" height="67" rx="4.5" fill="white"/>
<rect x="-370.5" y="-19.5" width="967" height="67" rx="4.5" fill="black" fill-opacity="0.2"/>
<rect x="-370.5" y="-19.5" width="967" height="67" rx="4.5" fill="black" fill-opacity="0.2"/>
<rect x="-370.5" y="-19.5" width="967" height="67" rx="4.5" fill="black" fill-opacity="0.2"/>
<rect x="-370.5" y="-19.5" width="967" height="67" rx="4.5" stroke="#9747FF" stroke-dasharray="10 5"/>
<path d="M12 22C17.5228 22 22 17.5228 22 12C22 6.47715 17.5228 2 12 2C6.47715 2 2 6.47715 2 12C2 17.5228 6.47715 22 12 22Z" stroke="white" stroke-width="2" stroke-linecap="round" stroke-linejoin="round"/>
<path d="M2 12H22" stroke="white" stroke-width="2" stroke-linecap="round" stroke-linejoin="round"/>
<path d="M12 2C14.5013 4.73835 15.9228 8.29203 16 12C15.9228 15.708 14.5013 19.2616 12 22C9.49872 19.2616 8.07725 15.708 8 12C8.07725 8.29203 9.49872 4.73835 12 2Z" stroke="white" stroke-width="2" stroke-linecap="round" stroke-linejoin="round"/>
</svg>
