<svg width="12" height="12" viewBox="0 0 12 12" fill="none" xmlns="http://www.w3.org/2000/svg">
<path fill-rule="evenodd" clip-rule="evenodd" d="M5.02105 2.44118C4.87475 3.17955 4.23757 3.73529 3.47368 3.73529C2.7098 3.73529 2.07262 3.17955 1.92632 2.44118H0.315789C0.141383 2.44118 0 2.29633 0 2.11765C0 1.93897 0.141384 1.79412 0.315789 1.79412H1.92632C2.07262 1.05575 2.7098 0.5 3.47368 0.5C4.23757 0.5 4.87475 1.05575 5.02105 1.79412H11.6842C11.8586 1.79412 12 1.93897 12 2.11765C12 2.29633 11.8586 2.44118 11.6842 2.44118H5.02105ZM4.42105 2.11765C4.42105 2.65369 3.9969 3.08824 3.47368 3.08824C2.95047 3.08824 2.52632 2.65369 2.52632 2.11765C2.52632 1.58161 2.95047 1.14706 3.47368 1.14706C3.9969 1.14706 4.42105 1.58161 4.42105 2.11765Z" fill="white"/>
<path fill-rule="evenodd" clip-rule="evenodd" d="M10.0737 6.32353C9.92738 7.0619 9.2902 7.61765 8.52632 7.61765C7.76243 7.61765 7.12525 7.0619 6.97895 6.32353H0.315789C0.141383 6.32353 0 6.17868 0 6C0 5.82132 0.141384 5.67647 0.315789 5.67647H6.97895C7.12525 4.9381 7.76243 4.38235 8.52632 4.38235C9.2902 4.38235 9.92738 4.9381 10.0737 5.67647H11.6842C11.8586 5.67647 12 5.82132 12 6C12 6.17868 11.8586 6.32353 11.6842 6.32353H10.0737ZM9.47368 6C9.47368 6.53604 9.04953 6.97059 8.52632 6.97059C8.0031 6.97059 7.57895 6.53604 7.57895 6C7.57895 5.46396 8.0031 5.02941 8.52632 5.02941C9.04953 5.02941 9.47368 5.46396 9.47368 6Z" fill="white"/>
<path fill-rule="evenodd" clip-rule="evenodd" d="M3.47368 11.5C4.23757 11.5 4.87475 10.9443 5.02105 10.2059H11.6842C11.8586 10.2059 12 10.061 12 9.88235C12 9.70367 11.8586 9.55882 11.6842 9.55882H5.02105C4.87475 8.82045 4.23757 8.26471 3.47368 8.26471C2.7098 8.26471 2.07262 8.82045 1.92632 9.55882H0.315789C0.141384 9.55882 0 9.70367 0 9.88235C0 10.061 0.141383 10.2059 0.315789 10.2059H1.92632C2.07262 10.9443 2.7098 11.5 3.47368 11.5ZM3.47368 10.8529C3.9969 10.8529 4.42105 10.4184 4.42105 9.88235C4.42105 9.34631 3.9969 8.91176 3.47368 8.91176C2.95047 8.91176 2.52632 9.34631 2.52632 9.88235C2.52632 10.4184 2.95047 10.8529 3.47368 10.8529Z" fill="white"/>
</svg>
