<svg width="24" height="25" viewBox="0 0 24 25" fill="none" xmlns="http://www.w3.org/2000/svg">
<path d="M20.0999 11.3892C19.7714 10.9725 19.3715 10.6114 19.0001 10.2503C18.0431 9.41694 16.9576 8.8197 16.0435 7.94467C13.9153 5.91684 13.444 2.56952 14.8009 0C13.444 0.319454 12.2585 1.0417 11.2444 1.83339C7.54507 4.72236 6.08819 9.81973 7.83073 14.1948C7.88786 14.3337 7.94499 14.4726 7.94499 14.6532C7.94499 14.9588 7.73075 15.2365 7.44508 15.3477C7.11657 15.4866 6.77378 15.4032 6.5024 15.181C6.42085 15.1154 6.35297 15.0353 6.30244 14.9449C4.68845 12.9587 4.43135 10.1114 5.51687 7.83356C3.13159 9.7225 1.83183 12.917 2.01751 15.931C2.10321 16.6255 2.1889 17.3199 2.43172 18.0144C2.63168 18.8478 3.01732 19.6811 3.44582 20.4172C4.98839 22.8201 7.65933 24.5424 10.5302 24.8896C13.5868 25.2646 16.8576 24.7229 19.2001 22.6673C21.8139 20.3617 22.728 16.6671 21.3854 13.5004L21.1997 13.1393C20.8998 12.5004 20.0999 11.3892 20.0999 11.3892ZM15.5865 20.1395C15.1865 20.4728 14.5295 20.8339 14.0153 20.9728C12.4156 21.5284 10.8159 20.7506 9.87321 19.8339C11.5729 19.445 12.587 18.2227 12.8869 16.9866C13.1298 15.8755 12.6727 14.9588 12.487 13.8893C12.3156 12.8615 12.3442 11.9865 12.7298 11.0281C13.0012 11.5559 13.2869 12.0837 13.6297 12.5004C14.7295 13.8893 16.4577 14.5004 16.8291 16.3894C16.8862 16.5838 16.9148 16.7783 16.9148 16.9866C16.9576 18.1255 16.4434 19.3756 15.5865 20.1395Z" fill="white"/>
</svg>
