<svg width="16" height="14" viewBox="0 0 16 14" fill="none" xmlns="http://www.w3.org/2000/svg">
<path d="M6.11634 13.6971C6.50132 14.0931 7.13443 14.102 7.53041 13.717C7.9264 13.332 7.93531 12.6989 7.55033 12.3029L6.11634 13.6971ZM1 7L0.283005 6.30292C-0.0943351 6.69104 -0.0943351 7.30896 0.283005 7.69708L1 7ZM7.55033 1.69708C7.93531 1.30109 7.9264 0.667991 7.53041 0.283005C7.13443 -0.101981 6.50132 -0.0930637 6.11634 0.302922L7.55033 1.69708ZM15 8C15.5523 8 16 7.55228 16 7C16 6.44772 15.5523 6 15 6V8ZM7.55033 12.3029L1.71699 6.30292L0.283005 7.69708L6.11634 13.6971L7.55033 12.3029ZM1.71699 7.69708L7.55033 1.69708L6.11634 0.302922L0.283005 6.30292L1.71699 7.69708ZM1 8H15V6H1V8Z" fill="white"/>
</svg>
