<svg width="14" height="18" viewBox="0 0 14 18" fill="none" xmlns="http://www.w3.org/2000/svg">
<path d="M7 0C3.1099 0 0 2.99883 0 6.75C0 8.04727 0.401042 9.04922 1.0974 10.0652L6.26354 17.6238C6.42031 17.8523 6.6901 18 7 18C7.3099 18 7.58333 17.8488 7.73646 17.6238L12.9026 10.0652C13.599 9.04922 14 8.04727 14 6.75C14 2.99883 10.8901 0 7 0ZM7 10.4977C4.8526 10.4977 3.1099 8.81719 3.1099 6.74297C3.1099 4.66875 4.8526 2.98828 7 2.98828C9.1474 2.98828 10.8901 4.66875 10.8901 6.74297C10.8901 8.81719 9.1474 10.4977 7 10.4977ZM7 4.5C5.70937 4.5 4.66667 5.50547 4.66667 6.75C4.66667 7.99453 5.70937 9 7 9C8.29062 9 9.33333 7.99453 9.33333 6.75C9.33333 5.50547 8.29062 4.5 7 4.5Z" fill="#5E5F61"/>
</svg>
