<svg width="18" height="18" viewBox="0 0 18 18" fill="none" xmlns="http://www.w3.org/2000/svg">
<path d="M14.0399 13.4406C13.8414 13.2486 13.5249 13.2539 13.3329 13.4523C13.1409 13.6508 13.1461 13.9674 13.3446 14.1594L14.0399 13.4406ZM16.6523 17.3594C16.8508 17.5514 17.1674 17.5461 17.3594 17.3477C17.5514 17.1492 17.5461 16.8326 17.3477 16.6406L16.6523 17.3594ZM8.42857 3.92857C8.15243 3.92857 7.92857 4.15243 7.92857 4.42857C7.92857 4.70471 8.15243 4.92857 8.42857 4.92857V3.92857ZM11.3571 7.85714C11.3571 8.13329 11.581 8.35714 11.8571 8.35714C12.1333 8.35714 12.3571 8.13329 12.3571 7.85714H11.3571ZM15.4333 8.46667C15.4333 12.3143 12.3143 15.4333 8.46667 15.4333V16.4333C12.8665 16.4333 16.4333 12.8665 16.4333 8.46667H15.4333ZM8.46667 15.4333C4.61908 15.4333 1.5 12.3143 1.5 8.46667H0.5C0.5 12.8665 4.0668 16.4333 8.46667 16.4333V15.4333ZM1.5 8.46667C1.5 4.61908 4.61908 1.5 8.46667 1.5V0.5C4.0668 0.5 0.5 4.0668 0.5 8.46667H1.5ZM8.46667 1.5C12.3143 1.5 15.4333 4.61908 15.4333 8.46667H16.4333C16.4333 4.0668 12.8665 0.5 8.46667 0.5V1.5ZM13.3446 14.1594L16.6523 17.3594L17.3477 16.6406L14.0399 13.4406L13.3446 14.1594ZM8.42857 4.92857C10.046 4.92857 11.3571 6.23974 11.3571 7.85714H12.3571C12.3571 5.68745 10.5983 3.92857 8.42857 3.92857V4.92857Z" fill="#DBDBDB"/>
</svg>
