<svg width="28" height="28" viewBox="0 0 28 28" fill="none" xmlns="http://www.w3.org/2000/svg">
<path d="M18.6667 10.8C18.6667 9.52696 18.175 8.30606 17.2998 7.40589C16.4247 6.50571 15.2377 6 14 6C12.7623 6 11.5753 6.50571 10.7002 7.40589C9.825 8.30606 9.33333 9.52696 9.33333 10.8C9.33333 16.4 7 18 7 18H21C21 18 18.6667 16.4 18.6667 10.8Z" stroke="white" stroke-width="2" stroke-linecap="round" stroke-linejoin="round"/>
<path d="M16 21C15.7968 21.3042 15.505 21.5566 15.154 21.7321C14.803 21.9076 14.4051 22 14 22C13.5949 22 13.197 21.9076 12.846 21.7321C12.495 21.5566 12.2032 21.3042 12 21" stroke="white" stroke-width="2" stroke-linecap="round" stroke-linejoin="round"/>
</svg>
