<svg width="16" height="16" viewBox="0 0 16 16" fill="none" xmlns="http://www.w3.org/2000/svg">
<path fill-rule="evenodd" clip-rule="evenodd" d="M2.48954 8.01781C2.29836 8.01781 2.14338 8.17278 2.14338 8.36396C2.14338 8.55514 2.29836 8.71011 2.48954 8.71011L8.01781 8.71011L8.01781 14.2384C8.01781 14.4296 8.17279 14.5845 8.36396 14.5845C8.55514 14.5845 8.71011 14.4296 8.71011 14.2384L8.71012 8.71011H14.2384C14.4296 8.71011 14.5845 8.55513 14.5845 8.36396C14.5845 8.17279 14.4296 8.01781 14.2384 8.01781H8.71012L8.71011 2.48953C8.71011 2.29836 8.55514 2.14338 8.36396 2.14338C8.17279 2.14338 8.01781 2.29836 8.01781 2.48953L8.01781 8.01781L2.48954 8.01781Z" fill="#DBDBDB"/>
<path d="M2.14338 8.36396L2.64338 8.36396V8.36396L2.14338 8.36396ZM2.48954 8.01781L2.48954 7.51781L2.48954 8.01781ZM2.48954 8.71011L2.48954 9.21011L2.48954 9.21011L2.48954 8.71011ZM8.01781 8.71011H8.51781V8.21011H8.01781V8.71011ZM8.01781 14.2384L8.51781 14.2384L8.51781 14.2384L8.01781 14.2384ZM8.36396 14.5845L8.36396 14.0845L8.36396 14.5845ZM8.71011 14.2384L9.21011 14.2384L9.21012 14.2384L8.71011 14.2384ZM8.71012 8.71011V8.21011H8.21012V8.71011H8.71012ZM8.71012 8.01781H8.21012V8.51781H8.71012V8.01781ZM8.71011 2.48953L9.21012 2.48953L9.21011 2.48953L8.71011 2.48953ZM8.36396 2.14338L8.36396 2.64338L8.36396 2.14338ZM8.01781 2.48953L8.51781 2.48953L8.51781 2.48953L8.01781 2.48953ZM8.01781 8.01781V8.51781L8.51781 8.51781L8.51781 8.01781H8.01781ZM2.64338 8.36396C2.64338 8.44893 2.5745 8.51781 2.48954 8.51781L2.48954 7.51781C2.02222 7.51781 1.64338 7.89664 1.64338 8.36396L2.64338 8.36396ZM2.48954 8.21011C2.5745 8.21011 2.64338 8.27899 2.64338 8.36396L1.64338 8.36396C1.64338 8.83128 2.02222 9.21011 2.48954 9.21011L2.48954 8.21011ZM8.01781 8.21011L2.48954 8.21011L2.48954 9.21011L8.01781 9.21011L8.01781 8.21011ZM8.51781 14.2384L8.51781 8.71011H7.51781L7.51781 14.2384L8.51781 14.2384ZM8.36396 14.0845C8.44893 14.0845 8.51781 14.1534 8.51781 14.2384L7.51781 14.2384C7.51781 14.7057 7.89664 15.0845 8.36396 15.0845L8.36396 14.0845ZM8.21012 14.2384C8.21012 14.1534 8.27899 14.0845 8.36396 14.0845L8.36396 15.0845C8.83128 15.0845 9.21011 14.7057 9.21011 14.2384L8.21012 14.2384ZM8.21012 8.71011L8.21012 14.2384L9.21012 14.2384L9.21012 8.71011H8.21012ZM14.2384 8.21011H8.71012V9.21011H14.2384V8.21011ZM14.0845 8.36396C14.0845 8.27899 14.1534 8.21011 14.2384 8.21011V9.21011C14.7057 9.21011 15.0845 8.83128 15.0845 8.36396H14.0845ZM14.2384 8.51781C14.1534 8.51781 14.0845 8.44893 14.0845 8.36396H15.0845C15.0845 7.89664 14.7057 7.51781 14.2384 7.51781V8.51781ZM8.71012 8.51781H14.2384V7.51781H8.71012V8.51781ZM8.21012 2.48953L8.21012 8.01781H9.21012L9.21012 2.48953L8.21012 2.48953ZM8.36396 2.64338C8.27899 2.64338 8.21012 2.5745 8.21012 2.48953L9.21011 2.48953C9.21011 2.02222 8.83128 1.64338 8.36396 1.64338L8.36396 2.64338ZM8.51781 2.48953C8.51781 2.5745 8.44893 2.64338 8.36396 2.64338L8.36396 1.64338C7.89664 1.64338 7.51781 2.02222 7.51781 2.48953L8.51781 2.48953ZM8.51781 8.01781L8.51781 2.48953L7.51781 2.48953L7.51781 8.01781H8.51781ZM2.48954 8.51781L8.01781 8.51781V7.51781L2.48954 7.51781L2.48954 8.51781Z" fill="#DBDBDB"/>
</svg>
