<svg width="22" height="22" viewBox="0 0 22 22" fill="none" xmlns="http://www.w3.org/2000/svg">
<path d="M17.6667 1C16.7826 1 15.9348 1.35119 15.3096 1.97631C14.6845 2.60143 14.3333 3.44928 14.3333 4.33333V17.6667C14.3333 18.5507 14.6845 19.3986 15.3096 20.0237C15.9348 20.6488 16.7826 21 17.6667 21C18.5507 21 19.3986 20.6488 20.0237 20.0237C20.6488 19.3986 21 18.5507 21 17.6667C21 16.7826 20.6488 15.9348 20.0237 15.3096C19.3986 14.6845 18.5507 14.3333 17.6667 14.3333H4.33333C3.44928 14.3333 2.60143 14.6845 1.97631 15.3096C1.35119 15.9348 1 16.7826 1 17.6667C1 18.5507 1.35119 19.3986 1.97631 20.0237C2.60143 20.6488 3.44928 21 4.33333 21C5.21739 21 6.06524 20.6488 6.69036 20.0237C7.31548 19.3986 7.66667 18.5507 7.66667 17.6667V4.33333C7.66667 3.44928 7.31548 2.60143 6.69036 1.97631C6.06524 1.35119 5.21739 1 4.33333 1C3.44928 1 2.60143 1.35119 1.97631 1.97631C1.35119 2.60143 1 3.44928 1 4.33333C1 5.21739 1.35119 6.06524 1.97631 6.69036C2.60143 7.31548 3.44928 7.66667 4.33333 7.66667H17.6667C18.5507 7.66667 19.3986 7.31548 20.0237 6.69036C20.6488 6.06524 21 5.21739 21 4.33333C21 3.44928 20.6488 2.60143 20.0237 1.97631C19.3986 1.35119 18.5507 1 17.6667 1Z" stroke="white" stroke-width="2" stroke-linecap="round" stroke-linejoin="round"/>
</svg>
