<svg width="24" height="24" viewBox="0 0 24 24" fill="none" xmlns="http://www.w3.org/2000/svg">
<path d="M21 12C21 16.9706 16.9706 21 12 21C7.02944 21 3 16.9706 3 12C3 7.02944 7.02944 3 12 3C16.9706 3 21 7.02944 21 12Z" fill="#5E5F61"/>
<path d="M12.4991 15.967C12.4991 15.6909 12.2753 15.467 11.9991 15.467C11.723 15.467 11.4991 15.6909 11.4991 15.967H12.4991ZM11.4991 16C11.4991 16.2761 11.723 16.5 11.9991 16.5C12.2753 16.5 12.4991 16.2761 12.4991 16H11.4991ZM9.5 9.91C9.5 10.1861 9.72386 10.41 10 10.41C10.2761 10.41 10.5 10.1861 10.5 9.91H9.5ZM14 9.91H14.5V9.91L14 9.91ZM12 11.82V11.32C11.7242 11.32 11.5004 11.5434 11.5 11.8192L12 11.82ZM11.4991 13.0933C11.4991 13.3695 11.723 13.5933 11.9991 13.5933C12.2753 13.5933 12.4991 13.3695 12.4991 13.0933H11.4991ZM11.4991 15.967V16H12.4991V15.967H11.4991ZM10.5 9.91C10.5 9.15272 11.1496 8.5 12 8.5V7.5C10.6412 7.5 9.5 8.55755 9.5 9.91H10.5ZM12 8.5C12.8504 8.5 13.5 9.15272 13.5 9.91L14.5 9.91C14.5 8.55755 13.3588 7.5 12 7.5V8.5ZM13.5 9.91C13.5 10.6673 12.8504 11.32 12 11.32V12.32C13.3588 12.32 14.5 11.2625 14.5 9.91H13.5ZM12 11.82C11.5 11.8192 11.5 11.8193 11.5 11.8193C11.5 11.8193 11.5 11.8193 11.5 11.8193C11.5 11.8193 11.5 11.8193 11.5 11.8194C11.5 11.8194 11.5 11.8195 11.5 11.8197C11.5 11.82 11.5 11.8204 11.5 11.8209C11.5 11.822 11.5 11.8237 11.5 11.8259C11.5 11.8302 11.5 11.8367 11.5 11.8452C11.4999 11.8622 11.4999 11.8872 11.4999 11.9194C11.4998 11.9839 11.4997 12.0772 11.4996 12.1925C11.4993 12.423 11.4991 12.7415 11.4991 13.0933H12.4991C12.4991 12.7419 12.4993 12.4237 12.4996 12.1934C12.4997 12.0783 12.4998 11.9851 12.4999 11.9207C12.4999 11.8885 12.4999 11.8635 12.5 11.8466C12.5 11.8381 12.5 11.8317 12.5 11.8273C12.5 11.8251 12.5 11.8235 12.5 11.8224C12.5 11.8219 12.5 11.8215 12.5 11.8212C12.5 11.821 12.5 11.8209 12.5 11.8209C12.5 11.8208 12.5 11.8208 12.5 11.8208C12.5 11.8208 12.5 11.8208 12.5 11.8208C12.5 11.8208 12.5 11.8208 12 11.82Z" fill="white"/>
</svg>
